<svg width="84" height="76" viewBox="0 0 84 76" fill="none" xmlns="http://www.w3.org/2000/svg">
<path d="M77.418 0.5H6.582C3.1367 0.5 0.332001 3.3047 0.332001 6.75V15.082C0.332001 17.7929 2.0781 20.0859 4.5 20.9492V65.0822C4.5 70.8244 9.1719 75.5002 14.918 75.5002H69.086C74.8282 75.5002 79.504 70.8283 79.504 65.0822L79.5001 20.9492C81.9181 20.0859 83.6681 17.7969 83.6681 15.082V6.75C83.6681 3.3047 80.8633 0.5 77.418 0.5ZM75.3321 65.082C75.3321 68.5273 72.5274 71.332 69.0821 71.332H14.9181C11.4728 71.332 8.6681 68.5273 8.6681 65.082V21.332H75.3361V65.082H75.3321ZM79.5001 15.082C79.5001 16.2304 78.5665 17.164 77.4181 17.164L6.5821 17.1679C5.4337 17.1679 4.5001 16.2343 4.5001 15.0859V6.75391C4.5001 5.60551 5.43369 4.67191 6.5821 4.67191H77.4141C78.5625 4.67191 79.4961 5.6055 79.4961 6.75391V15.0859L79.5001 15.082Z" fill="#2A3357"/>
<path d="M29.5 40.082H54.5C57.9453 40.082 60.75 37.2773 60.75 33.832C60.75 30.3867 57.9453 27.582 54.5 27.582H29.5C26.0547 27.582 23.25 30.3867 23.25 33.832C23.25 37.2773 26.0547 40.082 29.5 40.082ZM29.5 31.75H54.5C55.6484 31.75 56.582 32.6836 56.582 33.832C56.582 34.9804 55.6484 35.914 54.5 35.914H29.5C28.3516 35.914 27.418 34.9804 27.418 33.832C27.418 32.6836 28.3516 31.75 29.5 31.75Z" fill="#2A3357"/>
</svg>
