<?xml version="1.0" encoding="UTF-8"?>
<svg id="Calque_2" data-name="Calque 2" xmlns="http://www.w3.org/2000/svg" viewBox="0 0 52.07 40.05">
  <defs>
    <style>
      .cls-1 {
        stroke-width: 0px;
      }
    </style>
  </defs>
  <g id="Calque_1-2" data-name="Calque 1">
    <path class="cls-1" d="M46.92,0c-1.3.04-2.53.59-3.44,1.53-9.58,9.6-16.89,17.61-25.78,26.69l-9.47-8c-2.11-1.78-5.26-1.52-7.05.59-1.78,2.11-1.52,5.26.59,7.05,0,0,.02.01.02.02l13,11c1.98,1.67,4.91,1.55,6.75-.28,10.77-10.79,18.44-19.41,29-30,1.99-1.92,2.04-5.08.12-7.07C49.69.51,48.33-.04,46.92,0Z"/>
  </g>
</svg>