<svg width="70" height="88" viewBox="0 0 70 88" fill="none" xmlns="http://www.w3.org/2000/svg">
<path d="M68.039 24.859H1.961C1.13287 24.859 0.461 24.1871 0.461 23.359V16.4801C0.461 14.3707 2.1719 12.6598 4.2813 12.6598H65.7223C67.8317 12.6598 69.5426 14.3707 69.5426 16.4801V23.359C69.5426 24.1871 68.8707 24.859 68.0426 24.859H68.039ZM3.461 21.859H66.551V16.4801C66.551 16.0309 66.1799 15.6598 65.7307 15.6598H4.28169C3.83247 15.6598 3.46138 16.0309 3.46138 16.4801L3.461 21.859Z" fill="#2A3357"/>
<path d="M54.551 88H15.449C10.7498 88 6.8904 84.3203 6.6599 79.6289L4.238 29.6879C4.19894 28.8598 4.83956 28.1567 5.6677 28.1176C6.49582 28.0863 7.1989 28.7192 7.238 29.5473L9.6599 79.4883C9.80834 82.5781 12.3513 85.0078 15.449 85.0078H54.558C57.6596 85.0078 60.1986 82.5859 60.3471 79.4883L62.769 29.5473C62.8081 28.7192 63.5073 28.0981 64.3393 28.1176C65.1674 28.1567 65.8081 28.8559 65.769 29.6879L63.3471 79.6289C63.1166 84.3281 59.2573 88 54.558 88H54.551Z" fill="#2A3357"/>
<path d="M35 78.238C34.1719 78.238 33.5 77.5661 33.5 76.738V33.476C33.5 32.6479 34.1719 31.976 35 31.976C35.8281 31.976 36.5 32.6479 36.5 33.476V76.738C36.5 77.5661 35.8281 78.238 35 78.238Z" fill="#2A3357"/>
<path d="M46.828 78.199H46.7264C45.8983 78.1482 45.2772 77.4295 45.328 76.5974L48.1874 33.4254C48.246 32.5973 48.9687 31.984 49.789 32.027C50.6172 32.0778 51.2382 32.7965 51.1874 33.6286L48.328 76.8006C48.2773 77.5897 47.6171 78.199 46.828 78.199Z" fill="#2A3357"/>
<path d="M22.77 78.199C21.9888 78.199 21.3286 77.5896 21.27 76.8006L18.4106 33.6286C18.3598 32.8005 18.9809 32.0895 19.809 32.027C20.6371 31.9879 21.3481 32.5973 21.4106 33.4254L24.27 76.5974C24.3208 77.4255 23.6997 78.1365 22.8716 78.199H22.77Z" fill="#2A3357"/>
<path d="M49.219 10.461C48.3909 10.461 47.719 9.78911 47.719 8.96099C47.719 5.67979 45.0471 3.00009 41.7581 3.00009H28.2271C24.9459 3.00009 22.2662 5.67199 22.2662 8.96099C22.2662 9.78911 21.5943 10.461 20.7662 10.461C19.9381 10.461 19.2662 9.78911 19.2662 8.96099C19.2662 4.01959 23.2857 9.15527e-05 28.2271 9.15527e-05H41.7581C46.6995 9.15527e-05 50.719 4.01959 50.719 8.96099C50.719 9.78911 50.0471 10.461 49.219 10.461Z" fill="#2A3357"/>
</svg>
