<svg width="64" height="44" viewBox="0 0 64 44" fill="none" xmlns="http://www.w3.org/2000/svg">
<path d="M32 35.31C34.0368 35.2974 36.0375 34.7703 37.8162 33.7778C39.5949 32.7853 41.094 31.3595 42.1744 29.6327C43.2547 27.9059 43.8813 25.9342 43.9959 23.9005C44.1105 21.8669 43.7095 19.8372 42.83 18L26.78 34.09C28.404 34.8901 30.1897 35.3074 32 35.31Z" fill="#2A3357"/>
<path d="M40.52 14.7L45.12 10.1L48.12 7.1L51.8 3.41C52.1067 3.02663 52.2617 2.54381 52.2355 2.05353C52.2092 1.56325 52.0035 1.09976 51.6576 0.751345C51.3116 0.402933 50.8496 0.193946 50.3595 0.164193C49.8695 0.134439 49.3855 0.285999 49 0.590001L44.2 5.39C40.2942 3.94773 36.1636 3.20963 32 3.21C25.3301 3.22051 18.7966 5.09986 13.1406 8.6349C7.4845 12.1699 2.93221 17.2192 0 23.21C2.81121 28.8802 7.06756 33.7092 12.34 37.21L9.34 40.21C9.14198 40.3945 8.98348 40.6173 8.87409 40.8649C8.7647 41.1125 8.7067 41.3797 8.70361 41.6503C8.70051 41.921 8.75239 42.1894 8.85608 42.4394C8.95978 42.6895 9.11315 42.9158 9.30689 43.1048C9.50064 43.2938 9.73073 43.4415 9.98324 43.539C10.2357 43.6365 10.5054 43.6817 10.7759 43.6719C11.0464 43.6621 11.3121 43.5975 11.5569 43.482C11.8016 43.3665 12.0204 43.2025 12.2 43L15.89 39.31L18.89 36.31L23.49 31.71L40.52 14.7ZM15.22 34.34C10.7976 31.5663 7.12895 27.743 4.54 23.21C8.06586 17.0057 13.5903 12.1794 20.212 9.51879C26.8336 6.85814 34.1616 6.52016 41 8.56L37.22 12.34C35.5962 11.5396 33.8104 11.1222 32 11.12C29.9685 11.1358 27.9738 11.6632 26.2 12.6536C24.4262 13.644 22.9306 15.0654 21.8513 16.7865C20.772 18.5076 20.1438 20.473 20.0247 22.501C19.9056 24.5291 20.2995 26.5544 21.17 28.39L15.22 34.34Z" fill="#2A3357"/>
<path d="M51.68 9.19L48.79 12.08C53.2066 14.8576 56.8712 18.6801 59.46 23.21C56.709 28.0668 52.7164 32.1051 47.8913 34.9113C43.0662 37.7175 37.5818 39.1907 32 39.18C28.9526 39.1781 25.9215 38.7369 23 37.87L19.82 41.05C23.7216 42.4799 27.8446 43.2111 32 43.21C38.6699 43.1995 45.2034 41.3201 50.8594 37.7851C56.5155 34.2501 61.0678 29.2008 64 23.21C61.1941 17.537 56.9453 12.7019 51.68 9.19Z" fill="#2A3357"/>
</svg>
