<svg width="64" height="40" viewBox="0 0 64 40" fill="none" xmlns="http://www.w3.org/2000/svg">
<path d="M32 4C37.5848 3.99234 43.0711 5.47006 47.8965 8.28167C52.722 11.0933 56.7128 15.1376 59.46 20C56.6994 24.848 52.7045 28.8787 47.8814 31.6825C43.0583 34.4863 37.5789 35.9632 32 35.9632C26.4211 35.9632 20.9417 34.4863 16.1186 31.6825C11.2955 28.8787 7.30061 24.848 4.54 20C7.28716 15.1376 11.278 11.0933 16.1035 8.28167C20.9289 5.47006 26.4152 3.99234 32 4ZM32 0C25.3301 0.0105071 18.7966 1.88986 13.1406 5.4249C7.4845 8.95994 2.93221 14.0092 0 20C2.92375 25.9974 7.47407 31.0525 13.132 34.5887C18.79 38.125 25.3279 40 32 40C38.6721 40 45.21 38.125 50.868 34.5887C56.5259 31.0525 61.0763 25.9974 64 20C61.0678 14.0092 56.5155 8.95994 50.8594 5.4249C45.2034 1.88986 38.6699 0.0105071 32 0Z" fill="#2A3357"/>
<path d="M32 7.91C29.6051 7.89217 27.2588 8.58606 25.2588 9.90364C23.2588 11.2212 21.6952 13.1031 20.7663 15.3107C19.8375 17.5182 19.5852 19.9519 20.0414 22.303C20.4977 24.6541 21.642 26.8168 23.3292 28.5166C25.0164 30.2164 27.1704 31.3769 29.5181 31.8507C31.8657 32.3245 34.3012 32.0904 36.5156 31.1781C38.73 30.2657 40.6236 28.7162 41.9561 26.7261C43.2885 24.736 43.9999 22.395 44 20C44.0119 18.4166 43.7103 16.8465 43.1125 15.3802C42.5148 13.9138 41.6327 12.5803 40.5173 11.4565C39.4018 10.3326 38.0749 9.44066 36.6131 8.83198C35.1513 8.2233 33.5835 7.90996 32 7.91ZM28 20C27.2089 20 26.4355 19.7654 25.7777 19.3259C25.1199 18.8864 24.6072 18.2616 24.3045 17.5307C24.0017 16.7998 23.9225 15.9956 24.0769 15.2196C24.2312 14.4437 24.6122 13.731 25.1716 13.1716C25.731 12.6122 26.4437 12.2312 27.2196 12.0769C27.9956 11.9225 28.7998 12.0017 29.5307 12.3045C30.2616 12.6072 30.8864 13.1199 31.3259 13.7777C31.7654 14.4355 32 15.2089 32 16C32 17.0609 31.5786 18.0783 30.8284 18.8284C30.0783 19.5786 29.0609 20 28 20Z" fill="#2A3357"/>
</svg>
