<svg width="12" height="12" viewBox="0 0 12 12" fill="none" xmlns="http://www.w3.org/2000/svg">
<path d="M11.354 1.354L6.707 6L11.354 10.646C11.4479 10.7399 11.5006 10.8672 11.5006 11C11.5006 11.1328 11.4479 11.2601 11.354 11.354C11.2601 11.4479 11.1328 11.5006 11 11.5006C10.8672 11.5006 10.7399 11.4479 10.646 11.354L6 6.707L1.354 11.354C1.26011 11.4479 1.13277 11.5006 0.999999 11.5006C0.867223 11.5006 0.739885 11.4479 0.645998 11.354C0.552112 11.2601 0.499367 11.1328 0.499367 11C0.499367 10.8672 0.552112 10.7399 0.645998 10.646L5.293 6L0.645998 1.354C0.552112 1.26011 0.499367 1.13277 0.499367 0.999999C0.499367 0.867223 0.552112 0.739885 0.645998 0.645998C0.739885 0.552112 0.867223 0.499367 0.999999 0.499367C1.13277 0.499367 1.26011 0.552112 1.354 0.645998L6 5.293L10.646 0.645998C10.7399 0.552112 10.8672 0.499367 11 0.499367C11.1328 0.499367 11.2601 0.552112 11.354 0.645998C11.4479 0.739885 11.5006 0.867223 11.5006 0.999999C11.5006 1.13277 11.4479 1.26011 11.354 1.354Z" fill="#848EAD"/>
</svg>
